<svg width="82" height="111" viewBox="0 0 82 111" fill="none" xmlns="http://www.w3.org/2000/svg">
<path d="M7.15662 1.84799C-3.36483 7.05449 -1.95474 22.8909 9.21753 25.928C18.5458 28.4228 26.2471 22.457 26.0302 12.8033C25.9217 6.83755 23.8608 3.69196 18.3289 1.41412C13.7732 -0.538317 11.7123 -0.538317 7.15662 1.84799Z" fill="#4ABD4A"/>
<path d="M30.152 2.28194C28.4165 4.01744 28.4165 22.891 30.152 24.6265C31.0197 25.4942 35.1415 25.9281 41.3242 25.9281C47.5069 25.9281 51.6288 25.4942 52.4965 24.6265C54.232 22.891 54.232 4.01744 52.4965 2.28194C51.6288 1.41419 47.5069 0.980318 41.3242 0.980318C35.1415 0.980318 31.0197 1.41419 30.152 2.28194Z" fill="#4ABD4A"/>
<path d="M58.3539 2.28194C57.4861 3.14969 57.0522 7.2715 57.0522 13.4542C57.0522 19.6369 57.4861 23.7587 58.3539 24.6265C59.2216 25.4942 63.3434 25.9281 69.5261 25.9281C75.7088 25.9281 79.8307 25.4942 80.6984 24.6265C81.5662 23.7587 82 19.6369 82 13.4542C82 7.2715 81.5662 3.14969 80.6984 2.28194C79.8307 1.41419 75.7088 0.980318 69.5261 0.980318C63.3434 0.980318 59.2216 1.41419 58.3539 2.28194Z" fill="#4ABD4A"/>
<path d="M1.95006 30.4837C0.214563 32.2192 0.214563 51.0928 1.95006 52.8283C2.81781 53.696 6.93962 54.1299 13.1223 54.1299C19.305 54.1299 23.4268 53.696 24.2946 52.8283C25.1623 51.9605 25.5962 47.7302 25.5962 41.0052C25.5962 32.4362 25.2708 30.3753 23.8607 29.8329C20.7151 28.6398 3.36015 29.0736 1.95006 30.4837Z" fill="#4ABD4A"/>
<path d="M30.152 30.4837C28.4165 32.2192 28.4165 51.0928 30.152 52.8283C31.0197 53.696 35.1415 54.1299 41.3242 54.1299C47.5069 54.1299 51.6288 53.696 52.4965 52.8283C54.232 51.0928 54.232 32.2192 52.4965 30.4837C51.6288 29.616 47.5069 29.1821 41.3242 29.1821C35.1415 29.1821 31.0197 29.616 30.152 30.4837Z" fill="#4ABD4A"/>
<path d="M1.84159 58.9025C0.973843 59.8787 0.648437 64.0005 0.865374 70.5087L1.19078 80.7047H13.1223H25.0539L25.3793 70.5087C25.5962 64.0005 25.2708 59.8787 24.4031 58.9025C23.5353 57.8178 20.3897 57.384 13.1223 57.384C5.85493 57.384 2.70934 57.8178 1.84159 58.9025Z" fill="#4ABD4A"/>
<path d="M30.1519 58.6855C28.1994 60.638 28.4164 79.8369 30.3688 80.9216C31.2366 81.3555 36.7685 81.5724 42.6258 81.247L53.2557 80.7047L53.5811 71.4848C54.1234 56.8416 54.5573 57.3839 42.0834 57.3839C35.2499 57.3839 31.0196 57.8178 30.1519 58.6855Z" fill="#4ABD4A"/>
<path d="M58.2452 58.9025C57.3774 59.8787 57.052 64.0005 57.2689 70.5087L57.5943 80.7047H69.5259H81.4574L81.7828 71.4849C82.3252 56.8416 82.7591 57.384 70.1767 57.384C62.367 57.384 59.1129 57.8178 58.2452 58.9025Z" fill="#4ABD4A"/>
<path d="M1.95006 86.8874C0.214563 88.6229 0.214563 107.496 1.95006 109.232C3.68556 110.967 22.5591 110.967 24.2946 109.232C26.0301 107.496 26.0301 88.6229 24.2946 86.8874C23.4268 86.0197 19.305 85.5858 13.1223 85.5858C6.93962 85.5858 2.81781 86.0197 1.95006 86.8874Z" fill="#4ABD4A"/>
<path d="M30.152 86.8874C28.4165 88.6229 28.4165 107.496 30.152 109.232C31.8875 110.967 50.761 110.967 52.4965 109.232C54.232 107.496 54.232 88.6229 52.4965 86.8874C51.6288 86.0197 47.5069 85.5858 41.3242 85.5858C35.1415 85.5858 31.0197 86.0197 30.152 86.8874Z" fill="#4ABD4A"/>
</svg>
