<svg width="51" height="47" viewBox="0 0 51 47" fill="none" xmlns="http://www.w3.org/2000/svg">
<path d="M40.6106 0C43.366 0 46.0086 1.04749 47.957 2.91203C49.9054 4.77658 51 7.30544 51 9.94231V37.0577C51 39.6946 49.9054 42.2234 47.957 44.088C46.0086 45.9525 43.366 47 40.6106 47H17.9428C17.1913 47 16.4706 46.7143 15.9393 46.2058C15.4079 45.6973 15.1094 45.0076 15.1094 44.2885C15.1094 43.5693 15.4079 42.8796 15.9393 42.3711C16.4706 41.8626 17.1913 41.5769 17.9428 41.5769H40.6106C43.2174 41.5769 45.3331 39.5523 45.3331 37.0577V9.94231C45.3331 7.44769 43.2174 5.42308 40.6106 5.42308H17.9428C17.1913 5.42308 16.4706 5.1374 15.9393 4.62889C15.4079 4.12037 15.1094 3.43068 15.1094 2.71154C15.1094 1.99239 15.4079 1.3027 15.9393 0.794191C16.4706 0.285679 17.1913 0 17.9428 0H40.6106ZM11.2181 11.6415C11.4775 11.3751 11.7903 11.1615 12.1378 11.0133C12.4854 10.8651 12.8606 10.7854 13.2411 10.7789C13.6215 10.7725 13.9994 10.8395 14.3522 10.9759C14.7051 11.1122 15.0256 11.3152 15.2946 11.5727C15.5637 11.8302 15.7758 12.1369 15.9183 12.4745C16.0608 12.8122 16.1308 13.1738 16.1241 13.5379C16.1174 13.902 16.0341 14.261 15.8792 14.5936C15.7244 14.9263 15.5011 15.2256 15.2227 15.4738L9.66909 20.7885H31.1657C31.9172 20.7885 32.6379 21.0741 33.1693 21.5827C33.7006 22.0912 33.9992 22.7809 33.9992 23.5C33.9992 24.2191 33.7006 24.9088 33.1693 25.4173C32.6379 25.9259 31.9172 26.2115 31.1657 26.2115H9.66909L15.2227 31.5262C15.5011 31.7744 15.7244 32.0737 15.8792 32.4064C16.0341 32.739 16.1174 33.098 16.1241 33.4621C16.1308 33.8262 16.0608 34.1878 15.9183 34.5255C15.7758 34.8631 15.5637 35.1698 15.2946 35.4273C15.0256 35.6848 14.7051 35.8878 14.3522 36.0241C13.9994 36.1605 13.6215 36.2275 13.2411 36.2211C12.8606 36.2146 12.4854 36.1349 12.1378 35.9867C11.7903 35.8385 11.4775 35.6249 11.2181 35.3585L0.828659 25.4162C0.298042 24.9077 0 24.2186 0 23.5C0 22.7814 0.298042 22.0923 0.828659 21.5838L11.2181 11.6415Z" fill="black"/>
</svg>
